<svg xmlns="http://www.w3.org/2000/svg" viewBox="-28.40 -846.40 2534.80 1155.80" role="img" aria-labelledby="t"><title id="t">buky</title><path fill="#0F2922" d="M358 12Q299 12 250-12Q210-30 184-62L184 0L61 0L61-757L192-757L192-489Q215-515 248-532Q296-556 359-556Q436-556 498-518Q560-480 596.500-416Q633-352 633-272Q633-193 597-128Q561-63 499-25.500Q437 12 358 12M343-108Q388-108 423-129Q458-150 477.500-187Q497-224 497-272Q497-320 477.500-356.500Q458-393 423-414.500Q388-436 343-436Q300-436 265.500-415Q231-394 211.500-356.500Q192-319 192-272Q192-224 211.500-187Q231-150 265.500-129Q300-108 343-108M927 12Q864 12 817.500-16Q771-44 746.500-94Q722-144 722-211L722-544L853-544L853-222Q853-188 866.500-162.500Q880-137 905.500-122.500Q931-108 963-108Q995-108 1020-122.500Q1045-137 1059-163Q1073-189 1073-225L1073-544L1204-544L1204 0L1080 0L1080-65Q1061-32 1029-13Q985 12 927 12M1457 0L1326 0L1326-757L1457-757L1457-328L1663-544L1826-544L1625-325L1830 0L1680 0L1527-242L1457-166L1457 0M1969 220Q1947 220 1926 216.500Q1905 213 1888 204L1888 95Q1901 98 1919.500 101Q1938 104 1954 104Q1999 104 2019.500 83.500Q2040 63 2056 29L2068 0L1853-544L1994-544L2135-169L2275-544L2417-544L2180 55Q2159 107 2129 144Q2099 181 2059.500 200.500Q2020 220 1969 220"/></svg>
