<svg xmlns="http://www.w3.org/2000/svg" viewBox="-880.41 -104.30 2564.60 2562.36" role="img" aria-labelledby="t"><title id="t">buky</title><g transform="translate(-119.609 0.000)"><g transform="translate(-3.692 -7.738) scale(1.309282)"><path fill="#00E091" d="M290.06 802.37c-53.04.03-105.24.12-157.43.03-7.16 0-15.68 1.65-19.3-7.06-3.63-8.74 3.47-13.35 8.7-18.47 34.9-34.08 70.11-67.86 104.45-102.5 9.7-9.78 19.88-12.9 33.16-12.78 70.63.6 141.26.74 211.88.54 45.54-.12 85-30.4 93.73-70.92 10.76-49.95-19.33-96.1-70.34-108.09-7.82-1.84-15.7-2.1-23.64-2.08l-171.9.26c-3.12 0-6.24-.12-9.36-.02-5.42.16-10.37-.82-12.83-6.32-2.5-5.62 1.68-9.21 4.94-12.5a3636 3636 0 0 1 44.17-43.66c20.11-19.59 40.46-38.94 60.5-58.6 5.4-5.3 11.2-7.9 18.92-7.67 28.9.9 57.82-.7 86.73 1.56 103.3 8.04 193.67 83.66 210.82 181.36 14.37 81.78-11.46 151.14-73.23 206.48-38.33 34.33-84 53.08-134.98 58.87a276 276 0 0 1-30.55 1.62c-57.86.1-115.73-.01-174.44-.05m0 0"/><path fill="#00E091" d="M596.73 371.52c-29.36-15.47-59.44-26.7-92.11-29.92-4.67-.46-8.32-2.43-8.9-7.5-.68-5.73 3.48-8 7.96-9.46 17.67-5.76 33.01-15.1 44.75-29.65 42.8-53.07 13.28-130.96-55.08-145.61a82 82 0 0 0-17.7-1.9c-19 .08-38-.03-57 .08-7.3.05-11.43-3.3-11.45-10.58q-.21-60.4-.15-120.8c0-8.56 6.21-10.04 12.86-10.14 14.46-.2 28.92-.11 43.38-.12 43.6-.02 85.03 9.2 123.18 30.57 60.78 34.04 101.53 84.38 116.15 152.9 15.84 74.3-2.87 140.33-54.57 196.47-10.2 11.08-14.65 11.2-26.67 1.9-7.65-5.91-15.83-10.99-24.65-16.24m0 0"/><path fill="#00E091" d="m94.27 656.02-.06-286.62c0-15.2 1.74-16.92 17.13-16.91l109.71.01c12.83.01 14.58 1.63 14.6 14.77.1 46.5.07 92.99.07 139.48 0 39.97-.42 79.95.17 119.92.19 12.8-3.18 21.95-12.95 31.08-34.58 32.32-68 65.87-101.87 98.95-3.04 2.96-5.94 6.14-9.3 8.71-7.63 5.86-16.22 2.2-17.35-7.34-.43-3.64-.17-7.36-.17-11.05zm0 0"/><path fill="#00E091" d="M379.75 199.86c8.82-.21 11.5 3.85 11.44 11.66-.25 39.12-.19 78.24-.1 117.35.02 4.84-1.18 8.7-4.8 12.1-37.04 34.69-73.12 70.35-109.15 106.08a98 98 0 0 1-4.96 4.65c-4.4 3.79-9.37 5.48-14.9 2.86-5.27-2.5-5.24-7.48-5.24-12.44q0-95.25-.06-190.5 0-19.13-.32-38.25c-.16-9.6 2.12-12.32 11.7-12.36 24.37-.13 48.75.03 73.13-.15 14.16-.11 28.32-.66 43.26-1m0 0"/></g></g><g transform="translate(-837.109 2133.760)"><path fill="#0F2922" d="M358 12Q299 12 250-12Q210-30 184-62L184 0L61 0L61-757L192-757L192-489Q215-515 248-532Q296-556 359-556Q436-556 498-518Q560-480 596.500-416Q633-352 633-272Q633-193 597-128Q561-63 499-25.500Q437 12 358 12M343-108Q388-108 423-129Q458-150 477.500-187Q497-224 497-272Q497-320 477.500-356.500Q458-393 423-414.500Q388-436 343-436Q300-436 265.500-415Q231-394 211.500-356.500Q192-319 192-272Q192-224 211.500-187Q231-150 265.500-129Q300-108 343-108M927 12Q864 12 817.500-16Q771-44 746.500-94Q722-144 722-211L722-544L853-544L853-222Q853-188 866.500-162.500Q880-137 905.500-122.500Q931-108 963-108Q995-108 1020-122.500Q1045-137 1059-163Q1073-189 1073-225L1073-544L1204-544L1204 0L1080 0L1080-65Q1061-32 1029-13Q985 12 927 12M1457 0L1326 0L1326-757L1457-757L1457-328L1663-544L1826-544L1625-325L1830 0L1680 0L1527-242L1457-166L1457 0M1969 220Q1947 220 1926 216.500Q1905 213 1888 204L1888 95Q1901 98 1919.500 101Q1938 104 1954 104Q1999 104 2019.500 83.500Q2040 63 2056 29L2068 0L1853-544L1994-544L2135-169L2275-544L2417-544L2180 55Q2159 107 2129 144Q2099 181 2059.500 200.500Q2020 220 1969 220"/></g></svg>
